<svg width="26" height="22" viewBox="0 0 26 22" fill="none" xmlns="http://www.w3.org/2000/svg">
<path id="Vector" d="M2.48407 0.728666L1.56133 0.0611729L0.283752 1.94685L1.20649 2.61436L2.48407 0.728666ZM24.0276 17.7197L24.2283 18.8583L25.3325 18.6636L25.1317 17.525L24.0276 17.7197ZM1.20649 2.61436L23.3884 18.6604L24.666 16.7748L2.48407 0.728666L1.20649 2.61436ZM23.3884 18.6604L23.3905 18.6619L24.6686 16.7767L24.666 16.7748L23.3884 18.6604ZM23.8268 16.581L7.26613 19.5011L7.66769 21.7784L24.2283 18.8583L23.8268 16.581ZM25.1317 17.525L25.1314 17.5229L22.923 17.9123L22.9234 17.9144L25.1317 17.525ZM25.1314 17.5229L22.1221 0.444483L19.9137 0.833603L22.923 17.9123L25.1314 17.5229Z" fill="#CD0C75"/>
</svg>
