<svg width="17" height="17" viewBox="0 0 17 17" fill="none" xmlns="http://www.w3.org/2000/svg">
<g id="Icon123">
<path id="Vector" d="M3.05256 12.0032V4.40097H1.80519L0 5.71529V6.92335L1.7425 5.6696H1.80625V12.0032H3.05363H3.05256ZM6.46637 6.59504V6.5281C6.46637 5.87147 6.93388 5.28604 7.73712 5.28604C8.45537 5.28604 8.9845 5.75354 8.9845 6.46116C8.9845 7.12416 8.53825 7.63097 8.12706 8.08254L5.30187 11.2127V12.0032H10.3806V10.9513H7.05819V10.878L8.93563 8.76785C9.62625 7.9986 10.2499 7.3526 10.2499 6.35597C10.2489 5.15216 9.26819 4.2501 7.76475 4.2501C6.09344 4.2501 5.25725 5.3806 5.25725 6.53447V6.59504H6.46637ZM13.4353 8.59572H14.2704C15.1449 8.59572 15.7303 9.10679 15.7356 9.84841C15.7463 10.5996 15.1512 11.1404 14.2258 11.134C13.4077 11.1287 12.8169 10.6888 12.7606 10.1215H11.5972C11.6418 11.2403 12.5938 12.1593 14.2152 12.1593C15.7856 12.1593 17.0223 11.2679 16.9989 9.88135C16.9777 8.66691 16.0193 8.12716 15.351 8.06022V7.99329C15.9194 7.89766 16.7822 7.29204 16.7599 6.21041C16.7323 5.0916 15.7686 4.23947 14.2534 4.2501C12.6597 4.25541 11.7916 5.1851 11.7587 6.26672H12.9444C12.9784 5.7376 13.4736 5.26372 14.2258 5.26372C14.9727 5.26372 15.5072 5.72591 15.5072 6.4006C15.5125 7.0806 14.9717 7.57572 14.2322 7.57572H13.4353V8.59572Z" fill="white"/>
</g>
</svg>
