<svg width="13" height="17" viewBox="0 0 13 17" fill="none" xmlns="http://www.w3.org/2000/svg">
<g id="Calque_1" clip-path="url(#clip0_680_6786)">
<g id="VGgLeu.tif">
<g id="Group">
<path id="Vector" d="M11.1732 6.90854C11.3919 6.90217 11.5894 6.94007 11.7749 7.01821C12.2079 7.20065 12.5117 7.50718 12.6657 7.95893C12.7371 8.1682 12.7646 8.38183 12.7649 8.59982C12.7663 10.8411 12.7666 13.0824 12.7649 15.3234C12.7649 15.6758 12.6885 16.0095 12.4882 16.308C12.286 16.6092 12.0073 16.8124 11.6662 16.9211C11.5177 16.9684 11.3557 16.9945 11.2001 16.9949C9.42831 16.9999 7.65654 16.9985 5.88477 16.9985C4.45676 16.9985 3.02874 17.0029 1.60073 16.9959C1.04569 16.9932 0.593608 16.7671 0.276682 16.2996C0.139515 16.0977 0.0409154 15.876 0.0311896 15.6309C0.0130795 15.1795 0.00301835 14.7271 0.0023476 14.2753C-0.000670744 12.3637 -0.00100612 10.4524 0.00268298 8.5408C0.00335372 8.11923 0.125764 7.73456 0.417203 7.4173C0.651628 7.16175 0.938706 6.99808 1.28213 6.93839C1.35591 6.92564 1.4307 6.91055 1.50481 6.91223C1.58161 6.91391 1.59805 6.88406 1.59771 6.8143C1.59536 6.33908 1.59671 5.86419 1.59671 5.38897C1.59671 5.31351 1.59503 5.23805 1.59671 5.16259C1.60509 4.86445 1.60509 4.56597 1.62722 4.26883C1.64064 4.0884 1.6782 3.90797 1.72348 3.73223C1.7882 3.48037 1.85561 3.22783 1.9475 2.98536C2.09104 2.60706 2.2916 2.25727 2.53373 1.93196C2.7799 1.60162 3.06127 1.30649 3.38256 1.04725C3.71357 0.779955 4.07343 0.558274 4.46346 0.393942C4.72606 0.283269 5.00509 0.210493 5.27976 0.130004C5.49842 0.065948 5.72312 0.0303986 5.95218 0.0243619C6.17185 0.0186605 6.39219 -0.00917532 6.61085 0.00222732C6.84762 0.0146361 7.08507 0.0491794 7.31815 0.0957961C7.55928 0.14409 7.80008 0.204121 8.03182 0.285281C8.44131 0.42882 8.82196 0.633062 9.1751 0.887274C9.53999 1.14987 9.86127 1.4564 10.1406 1.8082C10.4036 2.13922 10.6229 2.49806 10.7809 2.88844C10.8902 3.15808 10.963 3.44314 11.0441 3.72351C11.1625 4.132 11.1585 4.55423 11.1625 4.97378C11.1686 5.56605 11.1639 6.15831 11.1645 6.75092C11.1645 6.80055 11.1702 6.85019 11.1739 6.90821L11.1732 6.90854ZM6.38649 7.96731C5.14863 7.96697 3.91077 7.96664 2.67325 7.96697C2.29596 7.96697 1.91866 7.96194 1.5417 7.97267C1.35323 7.97804 1.19694 8.06826 1.12685 8.25305C1.09029 8.34963 1.07084 8.45863 1.0695 8.56192C1.06313 9.07605 1.06481 9.59017 1.06481 10.104C1.06481 11.487 1.06615 12.8698 1.06682 14.2528C1.06682 14.6134 1.06481 14.9736 1.06782 15.3341C1.0695 15.5343 1.10606 15.7211 1.29185 15.8442C1.40621 15.92 1.53198 15.9381 1.66344 15.9381C4.10831 15.9381 6.55317 15.9381 8.99803 15.9381C9.71069 15.9381 10.423 15.9394 11.1357 15.9371C11.3332 15.9364 11.5053 15.8771 11.6163 15.6953C11.6897 15.5749 11.6974 15.4421 11.6974 15.3089C11.6984 13.068 11.6981 10.827 11.6981 8.58607C11.6981 8.5636 11.6988 8.54147 11.6974 8.519C11.685 8.30671 11.6297 8.11353 11.414 8.02365C11.3245 7.98643 11.2202 7.96932 11.1226 7.96932C9.54401 7.96597 7.96542 7.96697 6.38649 7.96697V7.96731ZM6.37508 6.90753C7.5737 6.90753 8.77232 6.90753 9.97094 6.90753C10.0541 6.90753 10.0957 6.86461 10.0957 6.77875C10.0957 6.13618 10.094 5.49361 10.0964 4.85103C10.0977 4.51566 10.0726 4.18499 9.98804 3.858C9.89246 3.48942 9.75161 3.14198 9.5524 2.81801C9.24117 2.31294 8.83168 1.90513 8.32527 1.59692C7.97514 1.38362 7.60053 1.22499 7.1954 1.15188C6.964 1.10996 6.73024 1.07408 6.49615 1.05898C6.18157 1.0392 5.867 1.07072 5.56315 1.15423C5.29552 1.22768 5.02253 1.30045 4.77402 1.41951C4.51746 1.54259 4.27733 1.70793 4.04861 1.8793C3.68741 2.14995 3.40235 2.49371 3.17463 2.88341C3.01667 3.15338 2.89493 3.43878 2.81109 3.74095C2.73831 4.00355 2.67727 4.26816 2.67593 4.54182C2.67258 5.29339 2.67258 6.04496 2.67124 6.79653C2.67124 6.90686 2.67124 6.90686 2.7799 6.90686C3.97852 6.90686 5.17714 6.90686 6.37575 6.90686L6.37508 6.90753Z" fill="white"/>
<path id="Vector_2" d="M5.85414 13.2977C5.85414 13.1022 5.85414 12.9067 5.85414 12.7108C5.85414 12.6635 5.84542 12.6397 5.78942 12.6169C5.32627 12.4281 5.01135 12.1001 4.85842 11.6165C4.78666 11.3894 4.76787 11.157 4.80409 10.931C4.90236 10.3166 5.23404 9.87523 5.83134 9.65623C6.05268 9.57507 6.28308 9.53382 6.51684 9.56065C7.14164 9.63208 7.60311 9.94264 7.85631 10.5279C7.96531 10.7794 8.00488 11.05 7.969 11.3224C7.89522 11.8808 7.61988 12.3057 7.10508 12.5589C7.05645 12.5827 7.00078 12.5961 6.95785 12.627C6.93337 12.6444 6.9166 12.6883 6.91627 12.7205C6.91325 13.078 6.91358 13.4359 6.91459 13.7934C6.91492 13.9433 6.87669 14.0801 6.77105 14.1891C6.6473 14.3166 6.49068 14.3457 6.31897 14.3293C6.16906 14.3152 6.03323 14.2703 5.95811 14.1345C5.90881 14.0456 5.86856 13.9419 5.86018 13.842C5.84475 13.6616 5.85582 13.4791 5.85582 13.2974H5.85481L5.85414 13.2977ZM6.37867 11.6755C6.71739 11.6946 6.91492 11.4354 6.91258 11.1621C6.90989 10.8022 6.68587 10.6211 6.3837 10.6208C6.08756 10.6208 5.86588 10.7945 5.85347 11.1449C5.84308 11.435 6.05906 11.6933 6.37867 11.6755Z" fill="white"/>
</g>
</g>
</g>
<defs>
<clipPath id="clip0_680_6786">
<rect width="12.7663" height="17" fill="white"/>
</clipPath>
</defs>
</svg>
