<svg width="17" height="17" viewBox="0 0 17 17" fill="none" xmlns="http://www.w3.org/2000/svg">
<path d="M2.84538 12.6374C2.95566 12.7481 3.04017 12.8818 3.09288 13.0289C3.14558 13.176 3.1652 13.3329 3.15031 13.4884C3.07564 14.2084 2.93407 14.9198 2.72744 15.6134C4.20962 15.2702 5.11488 14.8729 5.52606 14.6646C5.75928 14.5465 6.02787 14.5185 6.28044 14.586C7.00446 14.779 7.75069 14.8762 8.5 14.875C12.7458 14.875 15.9375 11.8926 15.9375 8.5C15.9375 5.1085 12.7458 2.125 8.5 2.125C4.25425 2.125 1.0625 5.1085 1.0625 8.5C1.0625 10.0597 1.71806 11.5069 2.84538 12.6374ZM2.32156 16.7864C2.06982 16.8363 1.81727 16.882 1.564 16.9235C1.3515 16.9575 1.19 16.7365 1.27394 16.5389C1.36828 16.3164 1.45475 16.0906 1.53319 15.8621L1.53637 15.8514C1.79988 15.0864 2.0145 14.2067 2.09313 13.3875C0.789438 12.0806 0 10.37 0 8.5C0 4.39237 3.80587 1.0625 8.5 1.0625C13.1941 1.0625 17 4.39237 17 8.5C17 12.6076 13.1941 15.9375 8.5 15.9375C7.65813 15.9386 6.81975 15.8293 6.00631 15.6124C5.45381 15.8918 4.26487 16.4008 2.32156 16.7864Z" fill="white"/>
<path d="M7.50765 7.18257C7.30068 6.86026 6.99469 6.61383 6.63567 6.48032C6.27665 6.34681 5.88399 6.33344 5.51672 6.44221C5.14944 6.55098 4.8274 6.77601 4.59897 7.08349C4.37055 7.39097 4.2481 7.76429 4.25002 8.14732C4.25021 8.46452 4.33558 8.77584 4.4972 9.04876C4.65883 9.32169 4.89078 9.5462 5.16883 9.69885C5.44687 9.8515 5.76081 9.92668 6.07784 9.91654C6.39487 9.9064 6.70336 9.81131 6.97108 9.6412C6.8319 10.0545 6.57265 10.4954 6.14552 10.9374C6.0638 11.022 6.01901 11.1355 6.021 11.2531C6.02199 11.3113 6.03443 11.3687 6.05762 11.4221C6.08081 11.4755 6.11429 11.5239 6.15615 11.5643C6.19801 11.6048 6.24743 11.6366 6.30158 11.658C6.35574 11.6793 6.41357 11.6898 6.47179 11.6888C6.58935 11.6868 6.7013 11.6382 6.78302 11.5537C8.3619 9.91745 8.15683 8.13882 7.50765 7.1847V7.18257ZM11.7576 7.18257C11.5507 6.86026 11.2447 6.61383 10.8857 6.48032C10.5266 6.34681 10.134 6.33344 9.76672 6.44221C9.39944 6.55098 9.0774 6.77601 8.84897 7.08349C8.62055 7.39097 8.4981 7.76429 8.50002 8.14732C8.50021 8.46452 8.58558 8.77584 8.7472 9.04876C8.90883 9.32169 9.14078 9.5462 9.41883 9.69885C9.69687 9.8515 10.0108 9.92668 10.3278 9.91654C10.6449 9.9064 10.9534 9.81131 11.2211 9.6412C11.0819 10.0545 10.8226 10.4954 10.3955 10.9374C10.3551 10.9793 10.3232 11.0287 10.3019 11.0829C10.2805 11.137 10.27 11.1949 10.271 11.2531C10.272 11.3113 10.2844 11.3687 10.3076 11.4221C10.3308 11.4755 10.3643 11.5239 10.4061 11.5643C10.448 11.6048 10.4974 11.6366 10.5516 11.658C10.6057 11.6793 10.6636 11.6898 10.7218 11.6888C10.78 11.6879 10.8374 11.6754 10.8908 11.6522C10.9442 11.629 10.9926 11.5956 11.033 11.5537C12.6119 9.91745 12.4068 8.13882 11.7576 7.1847V7.18257Z" fill="white"/>
</svg>
