<svg id="SvgjsSvg1001" width="288" height="288" xmlns="http://www.w3.org/2000/svg" version="1.1" xmlns:xlink="http://www.w3.org/1999/xlink" xmlns:svgjs="http://svgjs.com/svgjs"><defs id="SvgjsDefs1002"></defs><g id="SvgjsG1008"><svg xmlns="http://www.w3.org/2000/svg" fill="none" viewBox="0 0 30 30" width="288" height="288"><g clip-path="url(#a)"  class="color000 svgShape"><path stroke="#f15722" stroke-width="2" d="M23.4782 1.3042H6.52171C3.64023 1.3042 1.30432 3.6401 1.30432 6.52159V23.4781C1.30432 26.3595 3.64023 28.6955 6.52171 28.6955H23.4782C26.3597 28.6955 28.6956 26.3595 28.6956 23.4781V6.52159C28.6956 3.6401 26.3597 1.3042 23.4782 1.3042Z" class="colorStrokeEEE svgStroke"></path><path fill="#f15722" d="M21.3916 10.0749C20.2893 9.56903 19.1261 9.20797 17.9311 9.00074C17.9202 8.99891 17.9091 9.00049 17.8992 9.00525C17.8893 9.01 17.8812 9.01771 17.8758 9.0273C17.726 9.29292 17.5603 9.64036 17.4444 9.91235C16.1563 9.71686 14.846 9.71686 13.5579 9.91235C13.4287 9.60935 13.2825 9.31387 13.1201 9.0273C13.1147 9.01781 13.1065 9.0102 13.0966 9.00546C13.0867 9.00071 13.0757 8.99907 13.0649 9.00074C11.8696 9.20686 10.7061 9.56811 9.60434 10.0749C9.59491 10.0785 9.58703 10.0853 9.58203 10.094C7.37843 13.3867 6.77387 16.5986 7.0703 19.7701C7.07137 19.785 7.08093 19.7999 7.09262 19.8094C8.37581 20.76 9.81109 21.4857 11.3373 21.9557C11.348 21.9591 11.3596 21.9589 11.3703 21.9553C11.381 21.9517 11.3903 21.9447 11.3968 21.9355C11.724 21.4892 12.0151 21.0185 12.2659 20.5234C12.2711 20.5132 12.2729 20.5016 12.271 20.4903C12.2691 20.479 12.2635 20.4686 12.2552 20.4607C12.2498 20.4556 12.2432 20.4516 12.2361 20.4491C11.7784 20.2731 11.335 20.0618 10.9101 19.8169C10.8983 19.8101 10.8894 19.7991 10.8855 19.7861C10.8815 19.773 10.8828 19.7589 10.8889 19.7467C10.8925 19.7388 10.898 19.7319 10.9048 19.7266C10.9941 19.6596 11.0833 19.5895 11.1683 19.5194C11.1758 19.5133 11.1848 19.5095 11.1944 19.5081C11.2039 19.5068 11.2137 19.5081 11.2225 19.5119C14.0052 20.7827 17.0173 20.7827 19.766 19.5119C19.7752 19.508 19.7853 19.5066 19.7952 19.5079C19.8051 19.5092 19.8145 19.5132 19.8223 19.5194C19.9073 19.5895 19.9965 19.6596 20.0858 19.7266C20.093 19.7318 20.0988 19.7388 20.1027 19.7469C20.1066 19.755 20.1084 19.7639 20.108 19.7729C20.1075 19.7818 20.1049 19.7905 20.1003 19.7982C20.0957 19.8059 20.0892 19.8123 20.0815 19.8169C19.6576 20.064 19.2137 20.2751 18.7545 20.448C18.7472 20.4506 18.7405 20.4549 18.735 20.4604C18.7295 20.4659 18.7253 20.4725 18.7226 20.4799C18.7202 20.487 18.7192 20.4945 18.7197 20.502C18.7203 20.5095 18.7223 20.5168 18.7258 20.5234C18.9808 21.0175 19.273 21.4892 19.5939 21.9355C19.6003 21.9447 19.6096 21.9517 19.6203 21.9553C19.631 21.9589 19.6426 21.9591 19.6534 21.9557C21.1821 21.4871 22.6197 20.7613 23.9044 19.8094C23.9108 19.805 23.9162 19.7991 23.92 19.7923C23.9239 19.7855 23.9262 19.7779 23.9267 19.7701C24.2816 16.1035 23.3328 12.9181 21.4128 10.0951C21.4109 10.0904 21.408 10.0862 21.4044 10.0828C21.4007 10.0793 21.3963 10.0766 21.3916 10.0749ZM12.6813 17.8385C11.843 17.8385 11.1534 17.0693 11.1534 16.1258C11.1534 15.1812 11.8303 14.412 12.6813 14.412C13.5387 14.412 14.2219 15.1876 14.2092 16.1258C14.2092 17.0693 13.5324 17.8385 12.6813 17.8385ZM18.3295 17.8385C17.4923 17.8385 16.8016 17.0693 16.8016 16.1258C16.8016 15.1812 17.4784 14.412 18.3295 14.412C19.1869 14.412 19.8712 15.1876 19.8574 16.1258C19.8574 17.0693 19.1869 17.8385 18.3295 17.8385Z" class="colorEEE svgShape"></path></g><defs><clipPath id="a"><rect width="30" height="30" fill="#ffffff" class="colorfff svgShape"></rect></clipPath></defs></svg></g></svg>