<svg width="30" height="29" viewBox="0 0 30 29" fill="none" xmlns="http://www.w3.org/2000/svg">
<path id="Vector" fill-rule="evenodd" clip-rule="evenodd" d="M15 27.1875C18.3649 27.1875 21.592 25.8508 23.9714 23.4714C26.3508 21.092 27.6875 17.8649 27.6875 14.5C27.6875 11.1351 26.3508 7.90795 23.9714 5.52858C21.592 3.14921 18.3649 1.8125 15 1.8125C11.6351 1.8125 8.40795 3.14922 6.02858 5.52858C3.64921 7.90795 2.3125 11.1351 2.3125 14.5C2.3125 17.8649 3.64921 21.092 6.02858 23.4714C8.40795 25.8508 11.6351 27.1875 15 27.1875ZM15 -6.33815e-07C18.8456 -8.01913e-07 22.5338 1.52767 25.253 4.24695C27.9723 6.96623 29.5 10.6544 29.5 14.5C29.5 18.3456 27.9723 22.0338 25.253 24.753C22.5338 27.4723 18.8456 29 15 29C11.1544 29 7.46623 27.4723 4.74695 24.753C2.02767 22.0338 0.5 18.3456 0.499999 14.5C0.499999 10.6544 2.02767 6.96623 4.74695 4.24695C7.46623 1.52767 11.1544 -4.65717e-07 15 -6.33815e-07ZM8.65625 13.5937C8.4159 13.5937 8.18539 13.6892 8.01543 13.8592C7.84548 14.0291 7.75 14.2596 7.75 14.5C7.75 14.7404 7.84548 14.9709 8.01543 15.1408C8.18539 15.3108 8.4159 15.4062 8.65625 15.4062L19.1561 15.4062L15.2646 19.2959C15.0945 19.466 14.9989 19.6968 14.9989 19.9375C14.9989 20.1782 15.0945 20.409 15.2646 20.5791C15.4348 20.7493 15.6656 20.8449 15.9062 20.8449C16.1469 20.8449 16.3777 20.7493 16.5479 20.5791L21.9854 15.1416C22.0698 15.0574 22.1367 14.9574 22.1824 14.8473C22.2281 14.7372 22.2516 14.6192 22.2516 14.5C22.2516 14.3808 22.2281 14.2628 22.1824 14.1527C22.1367 14.0426 22.0698 13.9426 21.9854 13.8584L16.5479 8.42087C16.3777 8.25071 16.1469 8.1551 15.9062 8.1551C15.6656 8.1551 15.4348 8.25071 15.2646 8.42087C15.0945 8.59104 14.9989 8.82184 14.9989 9.0625C14.9989 9.30316 15.0945 9.53396 15.2646 9.70412L19.1561 13.5937L8.65625 13.5937Z" fill="white"/>
</svg>
