<svg width="29" height="30" viewBox="0 0 29 30" fill="none" xmlns="http://www.w3.org/2000/svg">
<path id="Vector" fill-rule="evenodd" clip-rule="evenodd" d="M14.5 27.6875C17.8649 27.6875 21.092 26.3508 23.4714 23.9714C25.8508 21.592 27.1875 18.3649 27.1875 15C27.1875 11.6351 25.8508 8.40795 23.4714 6.02858C21.092 3.64921 17.8649 2.3125 14.5 2.3125C11.1351 2.3125 7.90795 3.64922 5.52858 6.02858C3.14921 8.40795 1.8125 11.6351 1.8125 15C1.8125 18.3649 3.14921 21.592 5.52858 23.9714C7.90795 26.3508 11.1351 27.6875 14.5 27.6875ZM14.5 0.499999C18.3456 0.499999 22.0338 2.02767 24.753 4.74695C27.4723 7.46623 29 11.1544 29 15C29 18.8456 27.4723 22.5338 24.753 25.253C22.0338 27.9723 18.3456 29.5 14.5 29.5C10.6544 29.5 6.96623 27.9723 4.24695 25.253C1.52767 22.5338 -4.65717e-07 18.8456 -6.33815e-07 15C-8.01913e-07 11.1544 1.52767 7.46623 4.24695 4.74695C6.96623 2.02767 10.6544 0.5 14.5 0.499999ZM8.15625 14.0937C7.9159 14.0937 7.68539 14.1892 7.51543 14.3592C7.34548 14.5291 7.25 14.7596 7.25 15C7.25 15.2404 7.34548 15.4709 7.51543 15.6408C7.68539 15.8108 7.9159 15.9062 8.15625 15.9062L18.6561 15.9062L14.7646 19.7959C14.5945 19.966 14.4989 20.1968 14.4989 20.4375C14.4989 20.6782 14.5945 20.909 14.7646 21.0791C14.9348 21.2493 15.1656 21.3449 15.4062 21.3449C15.6469 21.3449 15.8777 21.2493 16.0479 21.0791L21.4854 15.6416C21.5698 15.5574 21.6367 15.4574 21.6824 15.3473C21.7281 15.2372 21.7516 15.1192 21.7516 15C21.7516 14.8808 21.7281 14.7628 21.6824 14.6527C21.6367 14.5426 21.5698 14.4426 21.4854 14.3584L16.0479 8.92087C15.8777 8.75071 15.6469 8.6551 15.4062 8.6551C15.1656 8.6551 14.9348 8.75071 14.7646 8.92087C14.5945 9.09104 14.4989 9.32184 14.4989 9.5625C14.4989 9.80316 14.5945 10.034 14.7646 10.2041L18.6561 14.0937L8.15625 14.0937Z" fill="white"/>
</svg>
