<svg width="85" height="97" viewBox="0 0 85 97" fill="none" xmlns="http://www.w3.org/2000/svg">
<g id="Calque_1" clip-path="url(#clip0_506_5337)">
<path id="Vector" d="M0 72.707C3.07827 74.2933 6.15654 75.8614 9.22579 77.4659C21.2049 83.7023 33.193 89.9206 45.1359 96.2386C47.0407 97.2448 48.6656 97.2085 50.5793 96.4018C55.6977 94.2444 60.8884 92.2593 66.0429 90.1835C68.0469 89.3767 70.0149 88.4793 72.0008 87.6182C72.0008 87.3372 71.9828 87.0471 71.9828 86.7661C48.2142 81.2095 24.1477 77.0761 0.279843 71.9456C0.189571 72.1994 0.0902719 72.4532 0 72.707Z" fill="#EFE6EF"/>
<path id="Vector_2" d="M85 55.7109C83.664 53.626 82.5266 52.3661 81.9669 50.8704C81.001 48.2779 79.2949 48.3233 77.0651 48.7221C71.1072 49.8099 65.1132 50.7526 59.1372 51.7225C52.2765 52.8374 45.4068 53.9161 38.5371 55.0129C38.5371 55.2214 38.5461 55.4299 38.5552 55.6384C53.8472 55.6656 69.1393 55.6837 85 55.7109Z" fill="#EFE6EF"/>
<path id="Vector_3" d="M20.0673 15.2375C18.6229 17.1773 17.2508 19.1625 15.8516 21.1204C15.9599 21.2292 16.0682 21.3379 16.1856 21.4467C16.5105 21.3379 16.8626 21.2745 17.1515 21.1023C23.2629 17.4583 29.3653 13.7962 35.4857 10.1704C37.0203 9.26394 37.2009 8.05835 36.4606 6.59895C35.6211 4.94014 34.7635 3.29038 33.8247 1.69502C32.5248 -0.516736 31.929 -0.534865 30.3673 1.52279C26.9189 6.08227 23.4886 10.6508 20.0853 15.2375H20.0673Z" fill="#EFE6EF"/>
<path id="Vector_4" d="M19.7875 38.5516C25.2129 37.763 30.6292 36.9925 36.0365 36.1133C36.6684 36.0136 37.4808 35.4334 37.7155 34.8624C38.5009 32.9769 39.0606 31.0008 39.7105 29.061C39.53 28.8707 39.3495 28.6803 39.1689 28.499C32.4346 31.59 25.7094 34.6811 18.9751 37.7721C19.3903 38.4247 19.598 38.5788 19.7785 38.5516H19.7875Z" fill="#EFE6EF"/>
</g>
<defs>
<clipPath id="clip0_506_5337">
<rect width="85" height="97" fill="white"/>
</clipPath>
</defs>
</svg>
