<svg width="85" height="134" viewBox="0 0 85 134" fill="none" xmlns="http://www.w3.org/2000/svg">
<g id="Calque_1" clip-path="url(#clip0_506_5342)">
<path id="Vector" d="M77.894 44.9868C77.4014 44.4119 76.9507 43.8057 76.4162 43.2726C69.7398 36.5935 63.0216 29.9563 56.3767 23.2458C49.1134 15.9187 41.9655 8.47654 34.6498 1.20165C33.8638 0.417723 32.3335 -0.0839931 31.2121 0.0100787C22.1356 0.83582 13.0801 1.80789 4.01418 2.77997C2.91369 2.89495 1.83416 3.25033 0 3.66843C26.3175 17.9673 51.8909 31.8481 77.4538 45.729C77.6005 45.4781 77.7472 45.2377 77.894 44.9868Z" fill="#EFE6EF"/>
<path id="Vector_2" d="M62.571 110.127C54.9199 113.2 47.2794 116.283 39.6493 119.419C38.968 119.701 38.14 120.213 37.8885 120.83C36.1801 124.99 34.6185 129.213 33.0044 133.415C33.2455 133.613 33.497 133.802 33.7381 134C44.0722 126.056 54.4168 118.123 64.751 110.179C63.8077 109.792 63.1579 109.886 62.5605 110.127H62.571Z" fill="#EFE6EF"/>
<path id="Vector_3" d="M71.5113 62.1815C68.388 60.5509 65.6315 59.9238 62.5082 62.2965C60.6007 63.7494 58.2005 64.5542 56.0205 65.6517C56.0729 65.9653 56.1358 66.2789 56.1882 66.5924C65.7887 67.4809 75.3997 68.3589 85.0002 69.2473C84.4237 68.2962 83.711 67.8676 82.9564 67.5122C79.1413 65.7353 75.232 64.1257 71.5113 62.1815Z" fill="#EFE6EF"/>
<path id="Vector_4" d="M42.8458 42.6772C42.458 44.266 42.1855 45.238 41.9864 46.231C41.3366 49.5758 41.5148 49.8162 44.9211 50.412C51.524 51.5618 58.127 52.7115 64.7299 53.8404C65.4112 53.9554 66.1239 53.9136 66.8156 53.9449C66.8575 53.7568 66.8995 53.5686 66.9414 53.3805C59.0493 49.8789 51.1677 46.3669 42.8458 42.6667V42.6772Z" fill="#EFE6EF"/>
</g>
<defs>
<clipPath id="clip0_506_5342">
<rect width="85" height="134" fill="white"/>
</clipPath>
</defs>
</svg>
