<svg width="30" height="30" viewBox="0 0 30 30" fill="none" xmlns="http://www.w3.org/2000/svg">
<g id="Frame" clip-path="url(#clip0_1455_591)">
<path id="Vector" d="M23.4782 1.3042H6.52171C3.64023 1.3042 1.30432 3.6401 1.30432 6.52159V23.4781C1.30432 26.3596 3.64023 28.6955 6.52171 28.6955H23.4782C26.3597 28.6955 28.6956 26.3596 28.6956 23.4781V6.52159C28.6956 3.6401 26.3597 1.3042 23.4782 1.3042Z" stroke="#EEEEEE" stroke-width="2"/>
<path id="Vector_2" d="M15.0001 20.8695C18.2417 20.8695 20.8696 18.2416 20.8696 14.9999C20.8696 11.7583 18.2417 9.13037 15.0001 9.13037C11.7584 9.13037 9.13049 11.7583 9.13049 14.9999C9.13049 18.2416 11.7584 20.8695 15.0001 20.8695Z" stroke="#EEEEEE" stroke-width="2"/>
<path id="Vector_3" d="M23.4782 7.82598C22.7579 7.82598 22.1739 7.242 22.1739 6.52163C22.1739 5.80126 22.7579 5.21729 23.4782 5.21729C24.1986 5.21729 24.7826 5.80126 24.7826 6.52163C24.7826 7.242 24.1986 7.82598 23.4782 7.82598Z" fill="#EEEEEE"/>
</g>
<defs>
<clipPath id="clip0_1455_591">
<rect width="30" height="30" fill="white"/>
</clipPath>
</defs>
</svg>
