<svg width="44" height="40" viewBox="0 0 44 40" fill="none" xmlns="http://www.w3.org/2000/svg">
<g id="Calque_1" clip-path="url(#clip0_3351_6249)">
<path id="Vector" d="M0.0239875 21.7112L6.49149 32.395C7.33052 33.7834 8.91768 34.613 10.7216 34.6095H11.7809C11.9417 34.6095 12.057 34.4394 11.9836 34.318L6.46702 25.2794C6.39011 25.1545 6.50547 24.9844 6.66629 24.9844L9.18337 24.9497C9.24979 24.9497 9.30573 24.9774 9.34069 25.026L15.6439 34.5297C15.6753 34.5748 15.7313 34.606 15.7942 34.606L19.7062 34.6477C19.8705 34.6477 19.9893 34.4776 19.9089 34.3527L13.0359 23.8251C12.0431 22.3048 10.2636 21.4023 8.24995 21.4058L0.226752 21.4127C0.0659389 21.4127 -0.0529233 21.5828 0.0239875 21.7112Z" fill="white"/>
<path id="Vector_2" d="M43.9752 21.7112L37.5077 32.395C36.6686 33.7834 35.0815 34.613 33.2776 34.6095H32.2183C32.0575 34.6095 31.9421 34.4394 32.0155 34.318L37.5321 25.2794C37.6091 25.1545 37.4937 24.9844 37.3329 24.9844L34.8158 24.9497C34.7494 24.9497 34.6934 24.9774 34.6585 25.026L28.3553 34.5297C28.3238 34.5748 28.2679 34.606 28.205 34.606L24.293 34.6477C24.1287 34.6477 24.0098 34.4776 24.0902 34.3527L30.9633 23.8251C31.9561 22.3048 33.7355 21.4023 35.7492 21.4058L43.7724 21.4127C43.9332 21.4127 44.0521 21.5828 43.9752 21.7112Z" fill="white"/>
<path id="Vector_3" d="M36.0954 37.008C36.1514 36.9212 36.085 36.8066 35.9836 36.8066H7.95306C7.84818 36.8066 7.78526 36.9212 7.84119 37.008L8.40754 37.9208C9.20461 39.2121 10.6205 40 12.1482 40H31.7919C33.3162 40 34.732 39.2121 35.5326 37.9208L36.0989 37.008H36.0954Z" fill="white"/>
<path id="Vector_4" d="M30.7497 14.3353L22.293 0.0937175C22.2196 -0.0312392 22.0378 -0.0312392 21.9644 0.0937175L13.4762 14.3908C12.7176 15.6716 12.7421 17.2648 13.5391 18.5213L22.0238 31.8709C22.0972 31.9889 22.272 31.9889 22.3489 31.8709L30.6972 18.5734C31.5083 17.2787 31.5293 15.6439 30.7497 14.3318V14.3353ZM16.2415 16.3138L21.9644 6.67129C22.0378 6.54634 22.2196 6.54634 22.293 6.67129L28.0194 16.3173C28.0543 16.3797 28.0543 16.4526 28.0194 16.5151L22.328 25.5745C22.2545 25.6925 22.0797 25.6925 22.0028 25.5745L16.2415 16.5082C16.2031 16.4492 16.2031 16.3728 16.2415 16.3103V16.3138Z" fill="white"/>
</g>
<defs>
<clipPath id="clip0_3351_6249">
<rect width="44" height="40" fill="white"/>
</clipPath>
</defs>
</svg>
