<svg width="116" height="140" viewBox="0 0 116 140" fill="none" xmlns="http://www.w3.org/2000/svg">
<g id="Group 6">
<path id="Vector" d="M67.3718 52.6628L72.766 52.6025C72.8544 52.6025 72.9348 52.5583 72.9831 52.49L83.2771 38.5056C83.3294 38.4333 83.4138 38.3931 83.5023 38.3931L86.9229 38.4413C87.144 38.4453 87.2686 38.6904 87.148 38.8712L78.0558 52.1686C77.9311 52.3494 78.0598 52.5985 78.2808 52.5985L79.4706 52.6025C82.1235 52.6065 84.6036 51.2928 86.0868 49.0913L96.4733 33.6968C96.598 33.516 96.4653 33.2669 96.2442 33.2669L84.1534 33.2549C82.1838 33.2509 80.3268 34.1909 79.1651 35.7818L67.1467 52.2249C67.01 52.4097 67.1427 52.6668 67.3718 52.6628Z" fill="white"/>
<path id="Vector_2" d="M61.7524 65.229L57.773 70.6726C57.7288 70.7328 57.6404 70.7328 57.5962 70.6726L53.8701 65.5745C52.5918 63.827 50.5579 62.7945 48.3914 62.7985L36.2966 62.8106C36.2081 62.8106 36.1559 62.911 36.2041 62.9833L48.0176 80.495C48.717 81.5315 49.8867 82.1502 51.1368 82.1462L55.4216 82.1341C55.4578 82.1341 55.4899 82.118 55.51 82.0899L57.5962 79.1854C57.6404 79.1251 57.7288 79.1251 57.773 79.1854L59.9155 82.0979C59.9356 82.1261 59.9677 82.1421 60.0039 82.1421L63.3964 82.1542C65.173 82.1622 66.8371 81.2824 67.8259 79.8081L79.2656 62.8347C79.3138 62.7624 79.2616 62.662 79.1731 62.662L66.8331 62.6499C64.8274 62.6499 62.9382 63.606 61.7524 65.229ZM52.2461 77.9802L45.5295 68.1577C45.4812 68.0854 45.5295 67.985 45.6179 67.985L49.4325 67.9287C49.4686 67.9287 49.5008 67.9448 49.5209 67.9729L54.6016 74.8707C54.6297 74.9109 54.6297 74.9631 54.6016 74.9993L52.423 77.9761C52.3788 78.0444 52.2863 78.0444 52.2461 77.9802ZM62.9462 77.9882L60.7636 75.0033C60.7354 74.9631 60.7354 74.9109 60.7636 74.8747L65.9488 67.8323C65.9689 67.8042 66.0051 67.7881 66.0372 67.7881L69.8518 67.8444C69.9402 67.8444 69.9925 67.9448 69.9402 68.0171L63.1231 77.9882C63.0829 78.0485 62.9904 78.0525 62.9462 77.9882Z" fill="white"/>
<path id="Vector_3" d="M74.7959 27.072L57.9339 52.1283C57.8736 52.2207 57.7369 52.2207 57.6766 52.1283L41.1603 27.5822C40.0589 25.9431 38.2099 24.9629 36.2323 24.9629L13.8876 24.995C13.759 24.995 13.6866 25.1437 13.763 25.2441L15.8371 27.9277C16.8942 29.2976 18.5302 30.0971 20.2626 30.0931L33.9975 30.069C35.8183 30.0649 37.5226 30.9729 38.5395 32.4834L50.1159 49.6978C51.3418 51.5176 53.3878 52.6144 55.5865 52.6184L57.6003 52.6224H57.8093H58.0183L60.3175 52.6184C62.3353 52.6144 64.2165 51.61 65.3419 49.9348L77.28 32.1781C78.1683 30.8564 79.6556 30.0649 81.2513 30.069L94.4516 30.0931C96.7507 30.0971 98.9213 29.0325 100.328 27.2166L101.852 25.2481C101.932 25.1477 101.86 24.999 101.727 24.999L78.7673 24.9629C77.1715 24.9629 75.6843 25.7543 74.7959 27.072Z" fill="white"/>
<path id="Vector_4" d="M19.1371 33.7007L29.6723 49.3202C31.0591 51.3771 33.3824 52.6104 35.8665 52.6064L37.3256 52.6024C37.5466 52.6024 37.6753 52.3533 37.5506 52.1725L28.4584 38.8751C28.3338 38.6943 28.4624 38.4492 28.6835 38.4452L32.1042 38.397C32.1926 38.397 32.277 38.4372 32.3292 38.5095L42.6233 52.4939C42.6756 52.5622 42.756 52.6064 42.8404 52.6064L48.2346 52.6667C48.4597 52.6707 48.5924 52.4136 48.4597 52.2288L37.1567 36.7619C35.5449 34.5564 32.9764 33.2548 30.2431 33.2588L19.3622 33.2708C19.1451 33.2708 19.0125 33.5199 19.1371 33.7007Z" fill="white"/>
<path id="Vector_5" d="M83.032 55.7879C83.1123 55.6593 83.0199 55.4946 82.8671 55.4946H59.5055H58.171H32.7554C32.6026 55.4946 32.5102 55.6593 32.5906 55.7879L33.4146 57.1297C34.5762 59.0219 36.6383 60.1749 38.857 60.1749H58.167H59.5015H76.7614C78.9843 60.1749 81.0423 59.0219 82.2039 57.1297L83.032 55.7879Z" fill="white"/>
<path id="Vector_6" d="M50.4736 83.8735C49.2838 83.8735 48.1784 84.4922 47.5554 85.5046L45.8672 88.2565C45.7868 88.385 45.8792 88.5538 46.032 88.5538H50.4736H64.5661H69.0077C69.1605 88.5538 69.2529 88.385 69.1726 88.2565L67.4843 85.5046C66.8613 84.4922 65.7559 83.8735 64.5661 83.8735H50.4736Z" fill="white"/>
<path id="Vector_7" d="M57.4514 97.5566H56.117H41.9561C40.4889 97.5566 39.1263 98.3199 38.3586 99.5693L36.8271 102.064C36.7829 102.14 36.8352 102.237 36.9236 102.237H56.117H57.4514H77.1593C77.2478 102.237 77.3 102.14 77.2558 102.064L75.7243 99.5693C74.9566 98.3199 73.594 97.5566 72.1268 97.5566H57.4514Z" fill="white"/>
<path id="Vector_8" d="M70.6477 21.0018L58.3398 0.135586C58.2313 -0.0451953 57.97 -0.0451953 57.8615 0.135586L45.5054 21.0901C44.4 22.9662 44.4362 25.3003 45.5979 27.1443L57.9459 46.7088C58.0545 46.8816 58.3077 46.8816 58.4162 46.7088L70.5713 27.2246C71.7531 25.3244 71.7852 22.9301 70.6477 21.0018ZM49.529 23.9023L57.8615 9.77323C57.97 9.59245 58.2313 9.59245 58.3398 9.77323L66.6764 23.9103C66.7287 23.9987 66.7286 24.1112 66.6724 24.1996L58.3881 37.477C58.2795 37.6497 58.0263 37.6497 57.9178 37.477L49.529 24.1915C49.4807 24.1072 49.4767 23.9947 49.529 23.9023Z" fill="white"/>
<path id="Vector_9" d="M61.2821 90.5103H59.3407H37.2773C35.8946 90.5103 34.6083 91.2334 33.8929 92.4185L27.9922 102.169C27.9077 102.309 28.0042 102.49 28.173 102.494L29.1618 102.514C31.662 102.566 33.9893 101.249 35.2314 99.0793L36.4051 97.0264C37.0562 95.8895 38.2661 95.1905 39.5725 95.1905H59.3407H61.2821H75.0973C76.476 95.1905 77.7502 95.9297 78.4376 97.1268L79.6233 99.1998C80.8252 101.297 83.0721 102.566 85.4879 102.518L86.6133 102.494C86.7781 102.49 86.8786 102.309 86.7942 102.169L81.4683 93.3706C80.3951 91.5949 78.4697 90.5103 76.3916 90.5103H61.2821Z" fill="white"/>
<path id="Vector_10" d="M32.8518 62.481C32.6629 62.26 32.49 62.027 32.285 61.8221C29.7246 59.255 27.148 56.704 24.5996 54.1249C21.8141 51.3087 19.0727 48.4483 16.2671 45.6523C15.9656 45.351 15.3788 45.1581 14.9487 45.1943C11.4677 45.5076 7.99083 45.8853 4.51392 46.2589C4.09186 46.3031 3.67785 46.4397 2.97443 46.6004C13.0675 52.0961 22.8752 57.4312 32.6789 62.7662C32.7392 62.6698 32.7955 62.5774 32.8518 62.481Z" fill="#DFDFDF"/>
<path id="Vector_11" d="M77.6096 85.7295C78.9802 86.4326 80.3509 87.1276 81.7175 87.8387C87.0515 90.6026 92.3895 93.3585 97.7073 96.1586C98.5555 96.6045 99.279 96.5885 100.131 96.2309C102.41 95.2748 104.721 94.395 107.017 93.475C107.909 93.1175 108.785 92.7198 109.67 92.3381C109.666 92.2136 109.661 92.085 109.661 91.9605C99.078 89.4978 88.3619 87.6659 77.7342 85.3921C77.694 85.5046 77.6538 85.6171 77.6096 85.7295Z" fill="#DFDFDF"/>
<path id="Vector_12" d="M115.458 78.1967C114.863 77.2727 114.356 76.7143 114.107 76.0514C113.677 74.9025 112.917 74.9226 111.925 75.0993C109.272 75.5814 106.603 75.9992 103.942 76.4291C100.887 76.9232 97.8279 77.4013 94.769 77.8874C94.7731 77.9798 94.7731 78.0722 94.7771 78.1646C101.586 78.1766 108.395 78.1847 115.458 78.1967Z" fill="#DFDFDF"/>
<path id="Vector_13" d="M86.545 60.2593C85.9019 61.119 85.2909 61.9988 84.6679 62.8666C84.7161 62.9148 84.7644 62.963 84.8166 63.0112C84.9613 62.963 85.1181 62.9349 85.2467 62.8585C87.968 61.2436 90.6852 59.6205 93.4104 58.0136C94.0938 57.6119 94.1742 57.0776 93.8446 56.4308C93.4707 55.6956 93.0889 54.9644 92.6708 54.2574C92.092 53.2771 91.8267 53.2691 91.1314 54.181C89.5919 56.1977 88.0644 58.2225 86.545 60.2593Z" fill="#DFDFDF"/>
<path id="Vector_14" d="M26.9752 87.517C24.0409 88.6981 21.1107 89.8832 18.1844 91.0884C17.9232 91.1969 17.6056 91.3937 17.5092 91.6307C16.854 93.2297 16.2551 94.8527 15.636 96.4677C15.7285 96.544 15.825 96.6163 15.9174 96.6926C19.8807 93.6394 23.848 90.5902 27.8113 87.5371C27.4576 87.3884 27.2043 87.4246 26.9752 87.517Z" fill="#DFDFDF"/>
<path id="Vector_15" d="M30.4039 69.0895C29.2061 68.4628 28.1489 68.2217 26.9511 69.1337C26.2196 69.6921 25.2991 70.0014 24.463 70.4232C24.4831 70.5437 24.5072 70.6643 24.5273 70.7848C28.2092 71.1263 31.8952 71.4637 35.5771 71.8052C35.356 71.4396 35.0827 71.2749 34.7933 71.1383C33.3301 70.4554 31.8349 69.8367 30.4039 69.0895Z" fill="#DFDFDF"/>
<path id="Vector_16" d="M86.4204 70.592C88.8362 70.2425 91.2479 69.901 93.6556 69.5113C93.937 69.4671 94.2987 69.21 94.4032 68.9569C94.7529 68.1213 95.0022 67.2455 95.2916 66.3858C95.2112 66.3014 95.1308 66.2171 95.0504 66.1367C92.0518 67.5066 89.0572 68.8766 86.0587 70.2465C86.2516 70.5317 86.34 70.6 86.4204 70.592Z" fill="#DFDFDF"/>
<path id="Vector_17" d="M19.4104 61.5933C19.2617 62.2039 19.1572 62.5775 19.0808 62.9592C18.8316 64.2447 18.8999 64.3371 20.2063 64.5661C22.7386 65.008 25.2709 65.4499 27.8032 65.8838C28.0645 65.928 28.3379 65.9119 28.6031 65.924C28.6192 65.8517 28.6353 65.7793 28.6514 65.707C25.6287 64.3612 22.6019 63.0114 19.4104 61.5933Z" fill="#DFDFDF"/>
<path id="Vector_18" d="M10.6478 119.178L6.4755 111.597C5.18523 109.255 2.93026 107.833 0.502444 107.833H0V124.123H3.46084V113.441L9.38164 124.123H11.922L17.8428 113.441V124.123H21.3036V107.833H16.8902L10.6478 119.178Z" fill="white"/>
<path id="Vector_19" d="M33.4628 119.178L27.2204 107.837H22.811V124.127H26.2718V113.441L32.1926 124.127H34.733L40.6538 113.441V124.127H44.1106V107.837H39.7052L33.4628 119.178Z" fill="white"/>
<path id="Vector_20" d="M115.518 107.837C113.657 107.837 112.15 109.552 112.15 111.665V119.375L101.586 107.837H97.4943V123.087L89.5436 107.837H86.3039L78.1643 123.444V120.62H69.1243C67.6652 121.014 66.9377 122.203 66.9377 122.203V120.62H66.9216V107.837H63.4608V124.127H77.8065H78.1643H81.7055L83.5625 120.592H92.281L94.138 124.127H97.4943H98.037H100.951V112.589L111.515 124.127H115.606V107.837H115.518ZM85.3914 117.081L87.9278 112.216L90.4641 117.081H85.3914Z" fill="white"/>
<path id="Vector_21" d="M45.0753 110.733H49.549V110.741H51.0121C51.0121 110.741 49.9751 111.565 49.549 113.208V121.207H45.0753V124.147H57.4836V121.207H53.0099V110.729H57.4836V107.789H45.0753V110.733Z" fill="white"/>
<path id="Vector_22" d="M44.4402 135.741C44.0664 136.127 43.6081 136.416 43.0575 136.609C42.5108 136.798 41.7953 136.995 40.907 137.196C40.2478 137.348 39.7333 137.485 39.3635 137.601C38.9897 137.718 38.6721 137.867 38.4109 138.055C38.1496 138.244 38.0009 138.477 37.9727 138.758H45.1115L45.1798 139.887H36.5458L36.4574 139.1C36.389 138.493 36.5377 137.995 36.9035 137.61C37.2733 137.22 37.7316 136.923 38.2863 136.718C38.841 136.513 39.5806 136.292 40.505 136.059C41.2326 135.878 41.7993 135.721 42.2013 135.581C42.6033 135.444 42.9409 135.263 43.2062 135.038C43.4755 134.813 43.5961 134.528 43.572 134.187C43.5479 133.849 43.4514 133.58 43.2826 133.379C43.1137 133.178 42.8123 133.022 42.3862 132.917C41.9561 132.813 41.3572 132.761 40.5854 132.761C39.7815 132.761 39.1545 132.829 38.7043 132.961C38.2541 133.094 37.9406 133.323 37.7597 133.644C37.5788 133.966 37.5185 134.412 37.5788 134.986H36.2202C36.1237 134.11 36.2323 133.415 36.5458 132.905C36.8633 132.391 37.3417 132.033 37.9808 131.833C38.6239 131.632 39.4198 131.531 40.3684 131.531C41.3532 131.531 42.1732 131.612 42.8243 131.772C43.4755 131.933 43.9779 132.21 44.3437 132.6C44.7055 132.99 44.9065 133.528 44.9467 134.207C44.9828 134.842 44.814 135.352 44.4402 135.741Z" fill="#DFDFDF"/>
<path id="Vector_23" d="M47.1454 138.931C46.3455 138.212 45.9074 137.192 45.835 135.854C45.7586 134.504 46.0923 133.444 46.8399 132.68C47.5956 131.913 48.7612 131.527 50.3329 131.527C51.9045 131.527 53.0943 131.917 53.8902 132.688C54.6821 133.452 55.076 134.512 55.08 135.854C55.084 137.184 54.7021 138.204 53.9384 138.927C53.1828 139.642 52.0653 140 50.5741 140C49.0788 139.996 47.9372 139.642 47.1454 138.931ZM52.9134 138.116C53.4641 137.61 53.7375 136.858 53.7254 135.854C53.7174 134.846 53.4239 134.074 52.8451 133.548C52.2663 133.018 51.4383 132.753 50.365 132.753C49.2918 132.753 48.4799 133.018 47.9292 133.54C47.3825 134.062 47.1333 134.834 47.1816 135.85C47.2298 136.862 47.5433 137.618 48.1221 138.12C48.6969 138.618 49.5008 138.867 50.5339 138.867C51.5749 138.867 52.3668 138.618 52.9134 138.116Z" fill="#DFDFDF"/>
<path id="Vector_24" d="M64.1159 135.741C63.6979 136.127 63.2035 136.416 62.6367 136.609C62.07 136.798 61.3304 136.995 60.4179 137.196C59.7426 137.348 59.212 137.485 58.8262 137.601C58.4403 137.718 58.1067 137.867 57.8213 138.055C57.5359 138.244 57.3631 138.477 57.3028 138.758H64.4415L64.3812 139.887H55.7472V139.1C55.7472 138.493 55.9522 137.995 56.3662 137.61C56.7802 137.22 57.2746 136.923 57.8534 136.718C58.4323 136.513 59.196 136.292 60.1486 136.059C60.8962 135.878 61.4831 135.721 61.9011 135.581C62.3192 135.444 62.6769 135.263 62.9703 135.038C63.2638 134.813 63.4205 134.528 63.4366 134.187C63.4527 133.849 63.3884 133.58 63.2396 133.379C63.0909 133.178 62.8095 133.022 62.3955 132.917C61.9775 132.813 61.3826 132.761 60.6108 132.761C59.8069 132.761 59.1719 132.829 58.7056 132.961C58.2393 133.094 57.8977 133.323 57.6806 133.644C57.4635 133.966 57.351 134.412 57.347 134.986H55.9884C55.9924 134.11 56.1773 133.415 56.5511 132.905C56.9249 132.391 57.4475 132.033 58.1107 131.833C58.7779 131.632 59.5818 131.531 60.5305 131.531C61.5153 131.531 62.3272 131.612 62.9583 131.772C63.5893 131.933 64.0636 132.21 64.3812 132.6C64.6987 132.99 64.8354 133.528 64.7992 134.207C64.7631 134.842 64.5339 135.352 64.1159 135.741Z" fill="#DFDFDF"/>
<path id="Vector_25" d="M74.4703 137.67C74.3778 138.494 73.9518 139.088 73.1881 139.454C72.4284 139.819 71.3511 140 69.9523 140C68.9997 140 68.2038 139.912 67.5607 139.731C66.9176 139.55 66.4312 139.233 66.0935 138.775C65.7559 138.317 65.6112 137.678 65.6594 136.863H67.006C66.9658 137.441 67.0542 137.875 67.2753 138.164C67.4923 138.453 67.826 138.642 68.2762 138.735C68.7264 138.827 69.3534 138.871 70.1613 138.871C70.8688 138.871 71.4275 138.839 71.8375 138.771C72.2475 138.702 72.557 138.578 72.766 138.401C72.979 138.22 73.0996 137.959 73.1358 137.614C73.172 137.268 73.0876 137.011 72.8786 136.85C72.6695 136.686 72.2997 136.581 71.7651 136.529C71.2305 136.477 70.3905 136.453 69.2449 136.453L69.3413 135.276C70.4588 135.276 71.2908 135.252 71.8415 135.199C72.3922 135.147 72.7982 135.039 73.0594 134.874C73.3167 134.709 73.4654 134.444 73.5056 134.087C73.5418 133.757 73.4815 133.5 73.3287 133.307C73.176 133.118 72.8906 132.978 72.4766 132.889C72.0626 132.801 71.4677 132.757 70.6919 132.757C69.7795 132.757 69.0841 132.813 68.6017 132.925C68.1194 133.038 67.7657 133.247 67.5366 133.544C67.3115 133.841 67.1788 134.283 67.1386 134.862H65.776C65.8283 134.018 66.0574 133.347 66.4633 132.857C66.8733 132.363 67.428 132.018 68.1274 131.821C68.8268 131.624 69.679 131.523 70.6799 131.523C72.151 131.523 73.2443 131.724 73.9558 132.122C74.6632 132.52 74.9687 133.154 74.8723 134.022C74.7798 134.858 74.2774 135.472 73.3689 135.862C74.197 136.256 74.5627 136.858 74.4703 137.67Z" fill="#DFDFDF"/>
</g>
</svg>
