<svg width="23" height="23" viewBox="0 0 23 23" fill="none" xmlns="http://www.w3.org/2000/svg">
<g id="message 1">
<g id="Group">
<g id="Group_2">
<path id="Vector" d="M2.02148 3.62109H20.9785C22.0932 3.62109 23 4.52793 23 5.64258V17.3574C23 18.472 22.0932 19.3789 20.9785 19.3789H2.02148C0.906837 19.3789 0 18.472 0 17.3574V5.64258C0 4.52793 0.906837 3.62109 2.02148 3.62109ZM2.28531 4.96875L2.55511 5.1934L10.698 11.974C11.1627 12.3609 11.8374 12.3609 12.302 11.974L20.4449 5.1934L20.7147 4.96875H2.28531ZM21.6523 5.94167L15.0177 11.4663L21.6523 15.8818V5.94167ZM2.02148 18.0312H20.9785C21.3041 18.0312 21.5764 17.7991 21.6388 17.4917L13.9372 12.366L13.1644 13.0096C12.6822 13.4111 12.091 13.6119 11.5 13.6119C10.9089 13.6119 10.3178 13.4111 9.83555 13.0096L9.06272 12.366L1.36113 17.4916C1.42357 17.7991 1.69589 18.0312 2.02148 18.0312ZM1.34766 15.8818L7.98226 11.4663L1.34766 5.94167V15.8818Z" fill="white"/>
</g>
</g>
</g>
</svg>
