<svg width="20" height="21" viewBox="0 0 20 21" fill="none" xmlns="http://www.w3.org/2000/svg">
<g id="&#240;&#159;&#166;&#134; icon &#34;edit 2 outline&#34;">
<g id="Group">
<path id="Vector" d="M15.834 17.1663H4.16732C3.9463 17.1663 3.73434 17.2541 3.57806 17.4103C3.42178 17.5666 3.33398 17.7786 3.33398 17.9996C3.33398 18.2206 3.42178 18.4326 3.57806 18.5888C3.73434 18.7451 3.9463 18.8329 4.16732 18.8329H15.834C16.055 18.8329 16.267 18.7451 16.4232 18.5888C16.5795 18.4326 16.6673 18.2206 16.6673 17.9996C16.6673 17.7786 16.5795 17.5666 16.4232 17.4103C16.267 17.2541 16.055 17.1663 15.834 17.1663Z" fill="white"/>
<path id="Vector_2" d="M4.16691 15.4998H4.24191L7.71691 15.1831C8.09758 15.1452 8.45361 14.9775 8.72525 14.7081L16.2252 7.20813C16.5163 6.90061 16.6737 6.49022 16.6627 6.06691C16.6518 5.6436 16.4735 5.24189 16.1669 4.9498L13.8836 2.66647C13.5856 2.38655 13.1951 2.22593 12.7864 2.21518C12.3776 2.20442 11.9792 2.34427 11.6669 2.60813L4.16691 10.1081C3.89755 10.3798 3.72983 10.7358 3.69191 11.1165L3.33358 14.5915C3.32235 14.7135 3.33819 14.8366 3.37996 14.9518C3.42174 15.067 3.48842 15.1716 3.57525 15.2581C3.65311 15.3354 3.74546 15.3965 3.84699 15.4379C3.94852 15.4794 4.05724 15.5004 4.16691 15.4998ZM12.7252 3.83313L15.0002 6.10813L13.3336 7.73313L11.1002 5.4998L12.7252 3.83313ZM5.30858 11.2581L10.0002 6.5998L12.2502 8.8498L7.58358 13.5165L5.08358 13.7498L5.30858 11.2581Z" fill="white"/>
</g>
</g>
</svg>