<svg width="17" height="17" viewBox="0 0 17 17" fill="none" xmlns="http://www.w3.org/2000/svg">
<g id="People">
<path id="Vector" d="M15.9375 14.875C15.9375 14.875 17 14.875 17 13.8125C17 12.75 15.9375 9.5625 11.6875 9.5625C7.4375 9.5625 6.375 12.75 6.375 13.8125C6.375 14.875 7.4375 14.875 7.4375 14.875H15.9375ZM7.46088 13.8125C7.45303 13.8114 7.44523 13.81 7.4375 13.8083C7.43856 13.5278 7.61494 12.7139 8.245 11.9808C8.8315 11.2933 9.86213 10.625 11.6875 10.625C13.5118 10.625 14.5424 11.2944 15.13 11.9808C15.7601 12.7139 15.9354 13.5288 15.9375 13.8083L15.929 13.8104C15.9241 13.8112 15.9191 13.8119 15.9141 13.8125H7.46088ZM11.6875 7.4375C12.2511 7.4375 12.7916 7.21362 13.1901 6.8151C13.5886 6.41659 13.8125 5.87609 13.8125 5.3125C13.8125 4.74891 13.5886 4.20841 13.1901 3.8099C12.7916 3.41138 12.2511 3.1875 11.6875 3.1875C11.1239 3.1875 10.5834 3.41138 10.1849 3.8099C9.78638 4.20841 9.5625 4.74891 9.5625 5.3125C9.5625 5.87609 9.78638 6.41659 10.1849 6.8151C10.5834 7.21362 11.1239 7.4375 11.6875 7.4375ZM14.875 5.3125C14.875 5.73109 14.7926 6.14558 14.6324 6.5323C14.4722 6.91903 14.2374 7.27042 13.9414 7.5664C13.6454 7.86239 13.294 8.09718 12.9073 8.25737C12.5206 8.41755 12.1061 8.5 11.6875 8.5C11.2689 8.5 10.8544 8.41755 10.4677 8.25737C10.081 8.09718 9.72958 7.86239 9.4336 7.5664C9.13761 7.27042 8.90282 6.91903 8.74263 6.5323C8.58245 6.14558 8.5 5.73109 8.5 5.3125C8.5 4.46712 8.83582 3.65637 9.4336 3.0586C10.0314 2.46083 10.8421 2.125 11.6875 2.125C12.5329 2.125 13.3436 2.46083 13.9414 3.0586C14.5392 3.65637 14.875 4.46712 14.875 5.3125ZM7.3695 9.86C6.94448 9.72617 6.50636 9.63819 6.06262 9.59756C5.81329 9.57385 5.56296 9.56215 5.3125 9.5625C1.0625 9.5625 0 12.75 0 13.8125C0 14.5212 0.353813 14.875 1.0625 14.875H5.542C5.38449 14.5433 5.30594 14.1796 5.3125 13.8125C5.3125 12.7394 5.71306 11.6429 6.47062 10.727C6.72881 10.4146 7.0295 10.1224 7.3695 9.86ZM5.2275 10.625C4.59866 11.5699 4.25897 12.6776 4.25 13.8125H1.0625C1.0625 13.5363 1.23675 12.7181 1.87 11.9808C2.44906 11.305 3.45525 10.6463 5.2275 10.6261V10.625ZM1.59375 5.84375C1.59375 4.99837 1.92958 4.18762 2.52735 3.58985C3.12512 2.99208 3.93587 2.65625 4.78125 2.65625C5.62663 2.65625 6.43738 2.99208 7.03515 3.58985C7.63293 4.18762 7.96875 4.99837 7.96875 5.84375C7.96875 6.68913 7.63293 7.49988 7.03515 8.09765C6.43738 8.69543 5.62663 9.03125 4.78125 9.03125C3.93587 9.03125 3.12512 8.69543 2.52735 8.09765C1.92958 7.49988 1.59375 6.68913 1.59375 5.84375ZM4.78125 3.71875C4.21766 3.71875 3.67716 3.94263 3.27865 4.34115C2.88013 4.73966 2.65625 5.28016 2.65625 5.84375C2.65625 6.40734 2.88013 6.94784 3.27865 7.34635C3.67716 7.74487 4.21766 7.96875 4.78125 7.96875C5.34484 7.96875 5.88534 7.74487 6.28385 7.34635C6.68237 6.94784 6.90625 6.40734 6.90625 5.84375C6.90625 5.28016 6.68237 4.73966 6.28385 4.34115C5.88534 3.94263 5.34484 3.71875 4.78125 3.71875Z" fill="white"/>
</g>
</svg>
