<svg width="15" height="25" viewBox="0 0 15 25" fill="none" xmlns="http://www.w3.org/2000/svg">
<g id="Group 76">
<path id="Vector" d="M6.98737 23.7329L1.12139 17.0279C0.429113 16.239 0.991739 15 2.04238 15H13.7744C14.0095 14.9998 14.2397 15.0674 14.4374 15.1946C14.6351 15.3219 14.792 15.5035 14.8891 15.7176C14.9863 15.9317 15.0197 16.1693 14.9854 16.4019C14.951 16.6345 14.8503 16.8523 14.6954 17.0291L8.82936 23.7317C8.71456 23.8631 8.57298 23.9684 8.41413 24.0405C8.25528 24.1127 8.08283 24.15 7.90837 24.15C7.7339 24.15 7.56146 24.1127 7.40261 24.0405C7.24376 23.9684 7.10218 23.8631 6.98737 23.7317V23.7329Z" fill="white" fill-opacity="0.25"/>
<path id="Vector_2" d="M8.82903 1.26706L14.695 7.9721C15.3873 8.761 14.8247 10 13.774 10L2.04205 10C1.80692 10.0002 1.57671 9.93262 1.37899 9.80535C1.18128 9.67809 1.02444 9.49653 0.927257 9.28241C0.830074 9.0683 0.796668 8.83072 0.83104 8.59811C0.865411 8.3655 0.966102 8.14773 1.12106 7.97088L6.98704 1.26829C7.10185 1.13691 7.24342 1.03162 7.40227 0.959479C7.56113 0.887336 7.73357 0.850011 7.90804 0.850011C8.0825 0.850011 8.25495 0.887336 8.4138 0.959479C8.57265 1.03162 8.71423 1.13691 8.82903 1.26829L8.82903 1.26706Z" fill="white" fill-opacity="0.25"/>
</g>
</svg>
