<svg width="80" height="127" viewBox="0 0 80 127" fill="none" xmlns="http://www.w3.org/2000/svg">
<rect width="80" height="127" fill="#313131"/>
<g clip-path="url(#clip0_0_1)">
<rect width="1440" height="2151" transform="translate(-497 -168)" fill="#151515"/>
<g clip-path="url(#clip1_0_1)">
<path d="M6.68804 83.7382C7.15167 84.279 7.57583 84.8493 8.07891 85.3508C14.3625 91.6341 20.6856 97.8781 26.9396 104.191C33.7756 111.084 40.5031 118.085 47.3884 124.929C48.1282 125.666 49.5684 126.138 50.6239 126.05C59.1665 125.273 67.6893 124.358 76.2219 123.444C77.2577 123.336 78.2737 123.001 80 122.608C55.2306 109.157 31.1615 96.0983 7.10234 83.0401C6.96424 83.2761 6.82614 83.5022 6.68804 83.7382Z" fill="#EFE6EF"/>
<path d="M21.1101 22.4586C28.3111 19.5677 35.5022 16.667 42.6835 13.7171C43.3247 13.4516 44.104 12.9698 44.3407 12.3896C45.9486 8.47607 47.4184 4.50353 48.9375 0.550657C48.7106 0.363831 48.4739 0.186838 48.247 1.13837e-05C38.5207 7.4731 28.7846 14.9364 19.0583 22.4094C19.9461 22.7733 20.5577 22.6848 21.12 22.4586L21.1101 22.4586Z" fill="#EFE6EF"/>
<path d="M12.6959 67.5626C15.6354 69.0966 18.2298 69.6865 21.1694 67.4544C22.9647 66.0877 25.2236 65.3305 27.2754 64.298C27.2261 64.0031 27.1669 63.7081 27.1176 63.4131C18.0818 62.5773 9.03618 61.7513 0.000426039 60.9155C0.542966 61.8103 1.21374 62.2135 1.92397 62.5478C5.5146 64.2194 9.19401 65.7337 12.6959 67.5626Z" fill="#EFE6EF"/>
<path d="M39.6749 85.9111C40.0399 84.4164 40.2964 83.502 40.4838 82.5678C41.0954 79.4213 40.9277 79.1951 37.7218 78.6346C31.5072 77.553 25.2927 76.4714 19.0781 75.4094C18.4369 75.3012 17.7662 75.3406 17.1151 75.3111C17.0757 75.4881 17.0362 75.6651 16.9967 75.8421C24.4246 79.1361 31.8426 82.44 39.6749 85.9209L39.6749 85.9111Z" fill="#EFE6EF"/>
</g>
</g>
<defs>
<clipPath id="clip0_0_1">
<rect width="1440" height="2151" fill="white" transform="translate(-497 -168)"/>
</clipPath>
<clipPath id="clip1_0_1">
<rect width="80" height="127" fill="white" transform="translate(80 127) rotate(-180)"/>
</clipPath>
</defs>
</svg>
