<svg width="16" height="23" viewBox="0 0 16 23" fill="none" xmlns="http://www.w3.org/2000/svg">
<path id="Mask" d="M8 21L7.44342 21.5027L8 22.1189L8.55658 21.5027L8 21ZM8 0.25C3.71579 0.25 0.25 3.71579 0.25 8H1.75C1.75 4.54421 4.54421 1.75 8 1.75V0.25ZM0.25 8C0.25 9.46425 0.733796 11.0449 1.4093 12.5527C2.0892 14.0704 2.98912 15.5704 3.87828 16.8882C4.76888 18.2082 5.65799 19.3592 6.32391 20.1797C6.65719 20.5903 6.9354 20.9192 7.13101 21.1463C7.22884 21.2598 7.30607 21.348 7.35927 21.4082C7.38587 21.4383 7.40647 21.4615 7.42063 21.4773C7.42772 21.4852 7.4332 21.4913 7.43701 21.4956C7.43892 21.4977 7.44041 21.4994 7.44148 21.5006C7.44202 21.5012 7.44245 21.5016 7.44277 21.502C7.44293 21.5022 7.4431 21.5024 7.44318 21.5024C7.44331 21.5026 7.44342 21.5027 8 21C8.55658 20.4973 8.55663 20.4973 8.55666 20.4974C8.55664 20.4974 8.55664 20.4974 8.55659 20.4973C8.55649 20.4972 8.55628 20.497 8.55597 20.4966C8.55534 20.4959 8.5543 20.4948 8.55284 20.4931C8.54993 20.4899 8.54536 20.4848 8.5392 20.4779C8.52688 20.4641 8.50817 20.4431 8.48351 20.4152C8.43417 20.3593 8.361 20.2758 8.26743 20.1672C8.08023 19.9499 7.81156 19.6323 7.48859 19.2344C6.84201 18.4377 5.98112 17.323 5.12172 16.0493C4.26088 14.7734 3.4108 13.3515 2.7782 11.9395C2.1412 10.5176 1.75 9.16075 1.75 8H0.25ZM8 21C8.55658 21.5027 8.55669 21.5026 8.55682 21.5024C8.5569 21.5024 8.55707 21.5022 8.55723 21.502C8.55755 21.5016 8.55798 21.5012 8.55852 21.5006C8.55959 21.4994 8.56108 21.4977 8.56299 21.4956C8.5668 21.4913 8.57228 21.4852 8.57937 21.4773C8.59353 21.4615 8.61413 21.4383 8.64073 21.4082C8.69393 21.348 8.77116 21.2598 8.86899 21.1463C9.0646 20.9192 9.3428 20.5903 9.67609 20.1797C10.342 19.3592 11.2311 18.2082 12.1217 16.8882C13.0109 15.5704 13.9108 14.0704 14.5907 12.5527C15.2662 11.0449 15.75 9.46425 15.75 8H14.25C14.25 9.16075 13.8588 10.5176 13.2218 11.9395C12.5892 13.3515 11.7391 14.7734 10.8783 16.0493C10.0189 17.323 9.15799 18.4377 8.51141 19.2344C8.18844 19.6323 7.91977 19.9499 7.73257 20.1672C7.639 20.2758 7.56583 20.3593 7.51649 20.4152C7.49183 20.4431 7.47312 20.4641 7.4608 20.4779C7.45464 20.4848 7.45007 20.4899 7.44716 20.4931C7.4457 20.4948 7.44466 20.4959 7.44403 20.4966C7.44372 20.497 7.44351 20.4972 7.44341 20.4973C7.44336 20.4974 7.44336 20.4974 7.44334 20.4974C7.44337 20.4973 7.44342 20.4973 8 21ZM15.75 8C15.75 3.71579 12.2842 0.25 8 0.25V1.75C11.4558 1.75 14.25 4.54421 14.25 8H15.75ZM8 9.75C7.03421 9.75 6.25 8.96579 6.25 8H4.75C4.75 9.79421 6.20579 11.25 8 11.25V9.75ZM6.25 8C6.25 7.03421 7.03421 6.25 8 6.25V4.75C6.20579 4.75 4.75 6.20579 4.75 8H6.25ZM8 6.25C8.96579 6.25 9.75 7.03421 9.75 8H11.25C11.25 6.20579 9.79421 4.75 8 4.75V6.25ZM9.75 8C9.75 8.96579 8.96579 9.75 8 9.75V11.25C9.79421 11.25 11.25 9.79421 11.25 8H9.75Z" fill="white"/>
</svg>
