<svg width="17" height="17" viewBox="0 0 17 17" fill="none" xmlns="http://www.w3.org/2000/svg">
<g id="PinMap" clip-path="url(#clip0_519_3080)">
<path id="Vector" fill-rule="evenodd" clip-rule="evenodd" d="M3.29375 11.9C3.34323 11.834 3.4074 11.7805 3.48117 11.7436C3.55493 11.7067 3.63628 11.6875 3.71875 11.6875H6.375C6.5159 11.6875 6.65102 11.7435 6.75065 11.8431C6.85028 11.9427 6.90625 12.0779 6.90625 12.2188C6.90625 12.3596 6.85028 12.4948 6.75065 12.5944C6.65102 12.694 6.5159 12.75 6.375 12.75H3.98438L1.59375 15.9375H15.4062L13.0156 12.75H10.625C10.4841 12.75 10.349 12.694 10.2493 12.5944C10.1497 12.4948 10.0938 12.3596 10.0938 12.2188C10.0938 12.0779 10.1497 11.9427 10.2493 11.8431C10.349 11.7435 10.4841 11.6875 10.625 11.6875H13.2812C13.3637 11.6875 13.4451 11.7067 13.5188 11.7436C13.5926 11.7805 13.6568 11.834 13.7062 11.9L16.8937 16.15C16.9529 16.2289 16.989 16.3228 16.9979 16.421C17.0067 16.5193 16.988 16.6181 16.9439 16.7063C16.8998 16.7946 16.832 16.8688 16.748 16.9207C16.6641 16.9725 16.5674 17 16.4688 17H0.53125C0.432591 17 0.33588 16.9725 0.251956 16.9207C0.168031 16.8688 0.100208 16.7946 0.0560858 16.7063C0.011964 16.6181 -0.00671331 16.5193 0.00214687 16.421C0.011007 16.3228 0.0470546 16.2289 0.10625 16.15L3.29375 11.9Z" fill="white"/>
<path id="Vector_2" fill-rule="evenodd" clip-rule="evenodd" d="M8.5 1.06259C8.08141 1.06259 7.66692 1.14504 7.2802 1.30523C6.89347 1.46542 6.54208 1.7002 6.2461 1.99619C5.95011 2.29218 5.71532 2.64357 5.55513 3.03029C5.39495 3.41702 5.3125 3.83151 5.3125 4.25009C5.3125 4.66868 5.39495 5.08317 5.55513 5.4699C5.71532 5.85662 5.95011 6.20801 6.2461 6.504C6.54208 6.79998 6.89347 7.03477 7.2802 7.19496C7.66692 7.35515 8.08141 7.43759 8.5 7.43759C9.34538 7.43759 10.1561 7.10177 10.7539 6.504C11.3517 5.90623 11.6875 5.09547 11.6875 4.25009C11.6875 3.40472 11.3517 2.59396 10.7539 1.99619C10.1561 1.39842 9.34538 1.06259 8.5 1.06259ZM4.25 4.25009C4.25008 3.43221 4.48615 2.63172 4.92989 1.94467C5.37363 1.25763 6.00619 0.713214 6.75166 0.376758C7.49714 0.0403011 8.32386 -0.0739063 9.13263 0.0478397C9.94141 0.169586 10.6979 0.522113 11.3113 1.06312C11.9246 1.60413 12.3689 2.31064 12.5907 3.09787C12.8125 3.8851 12.8025 4.71962 12.5618 5.50128C12.3211 6.28294 11.8599 6.97855 11.2337 7.50463C10.6075 8.03071 9.84272 8.36492 9.03125 8.46716V14.3438C9.03125 14.4847 8.97528 14.6199 8.87565 14.7195C8.77602 14.8191 8.6409 14.8751 8.5 14.8751C8.3591 14.8751 8.22398 14.8191 8.12435 14.7195C8.02472 14.6199 7.96875 14.4847 7.96875 14.3438V8.46822C6.94128 8.33877 5.99642 7.83862 5.31167 7.06172C4.62691 6.28482 4.24939 5.28569 4.25 4.25009Z" fill="white"/>
</g>
<defs>
<clipPath id="clip0_519_3080">
<rect width="17" height="17" fill="white"/>
</clipPath>
</defs>
</svg>
