<?xml version="1.0" encoding="utf-8"?>
<svg version="1.1" id="Layer_1" xmlns="http://www.w3.org/2000/svg" xmlns:xlink="http://www.w3.org/1999/xlink" x="0px" y="0px"
	 viewBox="0 0 800 800" style="enable-background:new 0 0 800 800;" xml:space="preserve">
<style type="text/css">
	.st0{fill:#FFFFFF;}
</style>
<path class="st0" d="M691.7,414.6V297.9h-58.3v-58.3H575v-29.2h58.4v-87.5h-87.5v58.3h-58.4v58.3h-175v-58.3h-58.3v-58.3h-87.5v87.5
	H225v29.2h-58.3v58.3h-58.3v116.7H50v204.2h87.5V502.1h29.2v116.7H225v58.3h145.9v-87.5H254.2v-29.2h291.7v29.2H429.2v87.5H575
	v-58.3h58.4V502.1h29.1v116.7H750V414.6H691.7z M312.5,385.4H225v-87.5h87.5V385.4z M575,385.4h-87.5v-87.5H575V385.4z"/>
</svg>
