<svg width="30" height="30" viewBox="0 0 30 30" fill="none" xmlns="http://www.w3.org/2000/svg">
<g id="Frame" clip-path="url(#clip0_1455_588)">
<path id="Vector" d="M23.4782 1.3042H6.52171C3.64023 1.3042 1.30432 3.6401 1.30432 6.52159V23.4781C1.30432 26.3595 3.64023 28.6955 6.52171 28.6955H23.4782C26.3597 28.6955 28.6956 26.3595 28.6956 23.4781V6.52159C28.6956 3.6401 26.3597 1.3042 23.4782 1.3042Z" stroke="#EEEEEE" stroke-width="2"/>
<path id="Vector_2" d="M21.7766 9.51692C21.6409 9.4468 21.5088 9.36991 21.3809 9.28658C21.0086 9.0405 20.6672 8.75054 20.3642 8.42296C19.6063 7.55558 19.3231 6.67562 19.2188 6.05954H19.2231C19.1359 5.54816 19.1719 5.21729 19.1774 5.21729H15.7246V18.5686C15.7246 18.7478 15.7246 18.9249 15.717 19.1C15.717 19.1218 15.7149 19.1419 15.7137 19.1653C15.7137 19.175 15.7137 19.185 15.7116 19.1951V19.2026C15.6752 19.6817 15.5216 20.1445 15.2644 20.5502C15.0072 20.9559 14.6542 21.2923 14.2365 21.5296C13.8012 21.7773 13.3088 21.9072 12.8079 21.9065C11.1992 21.9065 9.89539 20.5948 9.89539 18.9748C9.89539 17.3548 11.1992 16.043 12.8079 16.043C13.1125 16.0427 13.4151 16.0907 13.7046 16.185L13.7088 12.6694C12.8298 12.5559 11.9369 12.6257 11.0863 12.8746C10.2357 13.1235 9.44585 13.5458 8.76666 14.1152C8.17154 14.6323 7.67122 15.2493 7.28822 15.9384C7.14246 16.1896 6.59255 17.1994 6.52596 18.8383C6.48408 19.7685 6.76343 20.7322 6.89662 21.1305V21.1388C6.98039 21.3735 7.30497 22.1738 7.83395 22.8485C8.26049 23.3897 8.76445 23.8652 9.32957 24.2595V24.2511L9.33794 24.2595C11.0095 25.3954 12.8628 25.3208 12.8628 25.3208C13.1835 25.3079 14.2583 25.3208 15.4787 24.7425C16.8323 24.1012 17.6029 23.1458 17.6029 23.1458C18.0953 22.575 18.4868 21.9245 18.7607 21.2222C19.0731 20.4009 19.1774 19.4158 19.1774 19.0221V11.939C19.2193 11.9641 19.7772 12.3331 19.7772 12.3331C19.7772 12.3331 20.5809 12.8483 21.8348 13.1837C22.7344 13.4224 23.9465 13.4728 23.9465 13.4728V10.0451C23.5218 10.0911 22.6595 9.95712 21.7766 9.51692Z" fill="#EEEEEE"/>
</g>
<defs>
<clipPath id="clip0_1455_588">
<rect width="30" height="30" fill="white"/>
</clipPath>
</defs>
</svg>
