<svg width="30" height="30" viewBox="0 0 30 30" fill="none" xmlns="http://www.w3.org/2000/svg">
<g id="Frame" clip-path="url(#clip0_1455_598)">
<path id="Vector" d="M21 21H17.1416L13.5601 15.895L9.06849 21H8L13.0654 15.2222L8 8H11.7793L15.1826 12.8478L19.4368 8H20.5449L15.6773 13.5403L21 21ZM19.3775 20.1689L11.3242 8.83105H9.58295L17.6164 20.1689H19.3775Z" stroke="#EEEEEE"/>
<path id="Vector_2" d="M23.1739 1H6.21739C3.33591 1 1 3.33591 1 6.21739V23.1739C1 26.0554 3.33591 28.3913 6.21739 28.3913H23.1739C26.0554 28.3913 28.3913 26.0554 28.3913 23.1739V6.21739C28.3913 3.33591 26.0554 1 23.1739 1Z" stroke="#EEEEEE" stroke-width="2"/>
</g>
<defs>
<clipPath id="clip0_1455_598">
<rect width="30" height="30" fill="white"/>
</clipPath>
</defs>
</svg>
