<svg width="29" height="29" viewBox="0 0 29 29" fill="none" xmlns="http://www.w3.org/2000/svg">
<path id="Vector" fill-rule="evenodd" clip-rule="evenodd" d="M1.8125 14.5C1.8125 17.8649 3.14921 21.092 5.52858 23.4714C7.90795 25.8508 11.1351 27.1875 14.5 27.1875C17.8649 27.1875 21.092 25.8508 23.4714 23.4714C25.8508 21.092 27.1875 17.8649 27.1875 14.5C27.1875 11.1351 25.8508 7.90795 23.4714 5.52858C21.092 3.14921 17.8649 1.8125 14.5 1.8125C11.1351 1.8125 7.90795 3.14921 5.52858 5.52858C3.14921 7.90795 1.8125 11.1351 1.8125 14.5ZM29 14.5C29 18.3456 27.4723 22.0338 24.753 24.753C22.0338 27.4723 18.3456 29 14.5 29C10.6544 29 6.96623 27.4723 4.24695 24.753C1.52767 22.0338 0 18.3456 0 14.5C0 10.6544 1.52767 6.96623 4.24695 4.24695C6.96623 1.52767 10.6544 0 14.5 0C18.3456 0 22.0338 1.52767 24.753 4.24695C27.4723 6.96623 29 10.6544 29 14.5ZM15.4062 8.15625C15.4062 7.9159 15.3108 7.68539 15.1408 7.51543C14.9709 7.34548 14.7404 7.25 14.5 7.25C14.2596 7.25 14.0291 7.34548 13.8592 7.51543C13.6892 7.68539 13.5938 7.9159 13.5938 8.15625V18.6561L9.70413 14.7646C9.53396 14.5945 9.30316 14.4989 9.0625 14.4989C8.82184 14.4989 8.59104 14.5945 8.42087 14.7646C8.25071 14.9348 8.1551 15.1656 8.1551 15.4062C8.1551 15.6469 8.25071 15.8777 8.42087 16.0479L13.8584 21.4854C13.9426 21.5698 14.0426 21.6367 14.1527 21.6824C14.2628 21.7281 14.3808 21.7516 14.5 21.7516C14.6192 21.7516 14.7372 21.7281 14.8473 21.6824C14.9574 21.6367 15.0574 21.5698 15.1416 21.4854L20.5791 16.0479C20.7493 15.8777 20.8449 15.6469 20.8449 15.4062C20.8449 15.1656 20.7493 14.9348 20.5791 14.7646C20.409 14.5945 20.1782 14.4989 19.9375 14.4989C19.6968 14.4989 19.466 14.5945 19.2959 14.7646L15.4062 18.6561V8.15625Z" fill="white"/>
</svg>
