<svg width="30" height="29" viewBox="0 0 30 29" fill="none" xmlns="http://www.w3.org/2000/svg">
<path id="Vector" fill-rule="evenodd" clip-rule="evenodd" d="M15 1.8125C11.6351 1.8125 8.40795 3.14921 6.02858 5.52858C3.64922 7.90795 2.3125 11.1351 2.3125 14.5C2.3125 17.8649 3.64921 21.092 6.02858 23.4714C8.40795 25.8508 11.6351 27.1875 15 27.1875C18.3649 27.1875 21.592 25.8508 23.9714 23.4714C26.3508 21.092 27.6875 17.8649 27.6875 14.5C27.6875 11.1351 26.3508 7.90795 23.9714 5.52858C21.592 3.14921 18.3649 1.8125 15 1.8125ZM15 29C11.1544 29 7.46623 27.4723 4.74695 24.753C2.02767 22.0338 0.499999 18.3456 0.499999 14.5C0.5 10.6544 2.02767 6.96623 4.74695 4.24695C7.46623 1.52767 11.1544 -8.01913e-07 15 -6.33815e-07C18.8456 -4.65717e-07 22.5338 1.52767 25.253 4.24695C27.9723 6.96623 29.5 10.6544 29.5 14.5C29.5 18.3456 27.9723 22.0338 25.253 24.753C22.5338 27.4723 18.8456 29 15 29ZM21.3437 15.4062C21.5841 15.4062 21.8146 15.3108 21.9846 15.1408C22.1545 14.9709 22.25 14.7404 22.25 14.5C22.25 14.2596 22.1545 14.0291 21.9846 13.8592C21.8146 13.6892 21.5841 13.5937 21.3437 13.5937L10.8439 13.5937L14.7354 9.70412C14.9055 9.53395 15.0011 9.30316 15.0011 9.0625C15.0011 8.82184 14.9055 8.59104 14.7354 8.42087C14.5652 8.25071 14.3344 8.1551 14.0937 8.1551C13.8531 8.1551 13.6223 8.25071 13.4521 8.42087L8.01462 13.8584C7.93023 13.9426 7.86327 14.0426 7.81758 14.1527C7.7719 14.2628 7.74838 14.3808 7.74838 14.5C7.74838 14.6192 7.7719 14.7372 7.81758 14.8473C7.86327 14.9574 7.93023 15.0574 8.01462 15.1416L13.4521 20.5791C13.6223 20.7493 13.8531 20.8449 14.0937 20.8449C14.3344 20.8449 14.5652 20.7493 14.7354 20.5791C14.9055 20.409 15.0011 20.1782 15.0011 19.9375C15.0011 19.6968 14.9055 19.466 14.7354 19.2959L10.8439 15.4062L21.3437 15.4062Z" fill="white"/>
</svg>
